<svg width="56" height="11" viewBox="0 0 56 11" fill="none" xmlns="http://www.w3.org/2000/svg">
<path d="M0 11H3.13702C5.08853 7.51971 7.31363 4.18364 9.79406 1.04594C9.44753 0.703312 9.11924 0.360689 8.79094 0.0180664H8.31674C5.41683 3.19184 2.62634 6.83446 0 11Z" fill="#ACD04D"/>
<path d="M7.69666 11H12.3839C13.1864 9.26883 14.0619 7.57374 15.0103 5.91473C14.0436 5.08522 13.1135 4.23768 12.2198 3.39014C10.5601 5.82456 9.0463 8.36719 7.69666 11Z" fill="#ACD04D"/>
<path d="M17.1989 10.9999H21.4302C20.3359 10.2064 19.278 9.413 18.2384 8.5835C17.8737 9.37694 17.5271 10.1884 17.1989 10.9999Z" fill="#ACD04D"/>
<path d="M30.44 11H33.6865C29.7652 7.68197 26.1905 3.98525 23.0352 0H19.0045C22.4151 4.00328 26.2452 7.7 30.44 11Z" fill="#ACD04D"/>
<path d="M25.9898 9.99016C22.0685 6.96066 18.4209 3.62459 15.1197 0H13.4053C17.5819 4.05738 21.8679 7.33934 26.0081 9.99016H25.9898Z" fill="#ACD04D"/>
<path d="M37.0605 11H40.617C37.2065 7.6459 34.1424 3.94918 31.4978 0H27.1753C30.0752 3.96721 33.3946 7.6459 37.0605 11Z" fill="#ACD04D"/>
<path d="M44.3377 11H48.186C45.2679 7.60984 42.7327 3.91311 40.6353 0H35.9845C38.3555 3.93115 41.146 7.62787 44.3377 11Z" fill="#ACD04D"/>
<path d="M52.1985 11H54.7154C55.0255 7.91639 55.1896 4.92295 55.2078 2.01967V0.45082C55.2078 0.306557 55.2078 0.144262 55.2078 0H45.4685C47.2924 3.89508 49.5539 7.5918 52.2167 11H52.1985Z" fill="#ACD04D"/>
</svg>
